<?xml version="1.0" encoding="UTF-8"?>
<svg xmlns="http://www.w3.org/2000/svg" xmlns:xlink="http://www.w3.org/1999/xlink" width="16pt" height="16pt" viewBox="0 0 16 16" version="1.1">
<g id="surface1">
<path style=" stroke:none;fill-rule:nonzero;fill:rgb(100%,64.705882%,0%);fill-opacity:1;" d="M 5.601562 11.199219 L 7.199219 11.199219 L 7.199219 4.800781 L 5.601562 4.800781 Z M 8 0 C 3.601562 0 0 3.601562 0 8 C 0 12.398438 3.601562 16 8 16 C 12.398438 16 16 12.398438 16 8 C 16 3.601562 12.398438 0 8 0 Z M 8 14.398438 C 4.480469 14.398438 1.601562 11.519531 1.601562 8 C 1.601562 4.480469 4.480469 1.601562 8 1.601562 C 11.519531 1.601562 14.398438 4.480469 14.398438 8 C 14.398438 11.519531 11.519531 14.398438 8 14.398438 Z M 8.800781 11.199219 L 10.398438 11.199219 L 10.398438 4.800781 L 8.800781 4.800781 Z M 8.800781 11.199219 "/>
</g>
</svg>
