<?xml version="1.0" encoding="UTF-8"?>
<svg xmlns="http://www.w3.org/2000/svg" xmlns:xlink="http://www.w3.org/1999/xlink" width="16pt" height="16pt" viewBox="0 0 16 16" version="1.1">
<g id="surface1">
<path style=" stroke:none;fill-rule:nonzero;fill:rgb(0%,94.117647%,0%);fill-opacity:1;" d="M 14.929688 4 C 12.722656 0.175781 7.828125 -1.136719 4 1.074219 C 0.175781 3.28125 -1.136719 8.175781 1.074219 12 C 3.28125 15.828125 8.175781 17.140625 12 14.929688 C 15.828125 12.71875 17.140625 7.828125 14.929688 4 Z M 11.203125 13.542969 C 8.140625 15.3125 4.226562 14.261719 2.460938 11.203125 C 0.691406 8.140625 1.742188 4.226562 4.800781 2.460938 C 7.863281 0.691406 11.777344 1.742188 13.542969 4.800781 C 15.3125 7.863281 14.261719 11.777344 11.203125 13.542969 Z M 10.882812 7.675781 L 6.691406 5.234375 C 6.3125 5.011719 6.003906 5.1875 6.003906 5.628906 L 6.027344 10.480469 C 6.027344 10.921875 6.339844 11.101562 6.722656 10.878906 L 10.878906 8.480469 C 11.261719 8.257812 11.261719 7.898438 10.882812 7.675781 Z M 10.882812 7.675781 "/>
</g>
</svg>
