<?xml version="1.0" encoding="UTF-8"?>
<svg xmlns="http://www.w3.org/2000/svg" xmlns:xlink="http://www.w3.org/1999/xlink" width="16pt" height="16pt" viewBox="0 0 16 16" version="1.1">
<g id="surface1">
<path style=" stroke:none;fill-rule:nonzero;fill:rgb(75.294118%,75.294118%,75.294118%);fill-opacity:1;" d="M 8.96875 2.679688 L 8.96875 2.078125 L 10.441406 2.078125 L 10.441406 1.953125 C 10.441406 0.875 9.570312 0 8.488281 0 L 7.066406 0 C 5.988281 0 5.113281 0.875 5.113281 1.953125 L 5.113281 2.078125 L 6.621094 2.078125 L 6.621094 2.671875 C 3.460938 3.222656 1.058594 5.96875 1.058594 9.285156 C 1.058594 13 4.066406 16.007812 7.777344 16.007812 C 11.492188 16.007812 14.5 13 14.5 9.285156 C 14.5 5.980469 12.113281 3.242188 8.96875 2.679688 Z M 7.777344 14.46875 C 4.921875 14.46875 2.597656 12.144531 2.597656 9.285156 C 2.597656 6.429688 4.921875 4.105469 7.777344 4.105469 C 10.636719 4.105469 12.960938 6.429688 12.960938 9.285156 C 12.960938 12.144531 10.636719 14.46875 7.777344 14.46875 Z M 7.777344 14.46875 "/>
<path style=" stroke:none;fill-rule:nonzero;fill:rgb(75.294118%,75.294118%,75.294118%);fill-opacity:1;" d="M 14.796875 3.480469 L 13.707031 2.390625 C 13.609375 2.292969 13.480469 2.238281 13.339844 2.238281 C 13.203125 2.238281 13.074219 2.292969 12.976562 2.390625 L 12.09375 3.273438 L 13.914062 5.09375 L 14.796875 4.210938 C 15 4.007812 15 3.683594 14.796875 3.480469 Z M 14.796875 3.480469 "/>
<path style=" stroke:none;fill-rule:nonzero;fill:rgb(75.294118%,75.294118%,75.294118%);fill-opacity:1;" d="M 7.753906 4.429688 C 5.082031 4.441406 2.921875 6.613281 2.921875 9.285156 C 2.921875 11.96875 5.097656 14.144531 7.777344 14.144531 C 10.460938 14.144531 12.636719 11.96875 12.636719 9.285156 L 7.753906 9.285156 Z M 7.753906 4.429688 "/>
</g>
</svg>
