<?xml version="1.0" encoding="UTF-8"?>
<svg xmlns="http://www.w3.org/2000/svg" xmlns:xlink="http://www.w3.org/1999/xlink" width="14pt" height="14pt" viewBox="0 0 14 14" version="1.1">
<g id="surface1">
<path style=" stroke:none;fill-rule:nonzero;fill:'black';fill-opacity:1;" d="M 7.847656 2.34375 L 7.847656 1.820312 L 9.136719 1.820312 L 9.136719 1.710938 C 9.136719 0.765625 8.371094 0 7.429688 0 L 6.183594 0 C 5.242188 0 4.476562 0.765625 4.476562 1.710938 L 4.476562 1.820312 L 5.792969 1.820312 L 5.792969 2.339844 C 3.03125 2.820312 0.925781 5.222656 0.925781 8.125 C 0.925781 11.375 3.558594 14.007812 6.804688 14.007812 C 10.054688 14.007812 12.6875 11.375 12.6875 8.125 C 12.6875 5.234375 10.597656 2.835938 7.847656 2.34375 Z M 6.804688 12.660156 C 4.304688 12.660156 2.273438 10.625 2.273438 8.125 C 2.273438 5.625 4.304688 3.589844 6.804688 3.589844 C 9.304688 3.589844 11.339844 5.625 11.339844 8.125 C 11.339844 10.625 9.308594 12.660156 6.804688 12.660156 Z M 6.804688 12.660156 "/>
<path style=" stroke:none;fill-rule:nonzero;fill:'black';fill-opacity:1;" d="M 12.945312 3.042969 L 11.992188 2.089844 C 11.910156 2.007812 11.792969 1.957031 11.675781 1.957031 C 11.554688 1.957031 11.4375 2.007812 11.355469 2.089844 L 10.582031 2.863281 L 12.175781 4.457031 L 12.945312 3.683594 C 13.125 3.507812 13.125 3.222656 12.945312 3.042969 Z M 12.945312 3.042969 "/>
<path style=" stroke:none;fill-rule:nonzero;fill:'black';fill-opacity:1;" d="M 6.785156 3.878906 C 4.449219 3.886719 2.558594 5.785156 2.558594 8.125 C 2.558594 10.472656 4.460938 12.375 6.808594 12.375 C 9.152344 12.375 11.054688 10.472656 11.054688 8.125 L 6.785156 8.125 Z M 6.785156 3.878906 "/>
</g>
</svg>
